# AST/ASF file generated using VICON BodyLanguage
# -----------------------------------------------
:version 1.10
:name VICON
:units
  mass 1.0
  length 0.45
  angle deg
:documentation
   .ast/.asf automatically generated from VICON data using
   VICON BodyBuilder and BodyLanguage model FoxedUp or BRILLIANT.MOD
:root
   order TX TY TZ RX RY RZ
   axis XYZ
   position 0 0 0  
   orientation 0 0 0 
:bonedata
  begin
     id 1 
     name lhipjoint
     direction 0.577973 -0.728611 0.367523 
     length 2.48544 
     axis 0 0 0  XYZ
  end
  begin
     id 2 
     name lfemur
     direction 0.34202 -0.939693 0  
     length 7.1921  
     axis 0 0 20  XYZ
    dof rx ry rz
    limits (-160.0 20.0)
           (-70.0 70.0)
           (-60.0 70.0)
  end
  begin
     id 3 
     name ltibia
     direction 0.34202 -0.939693 0   
     length 7.71059   
     axis 0 0 20   XYZ
    dof rx
    limits (-10.0 170.0)
  end
  begin
     id 4 
     name lfoot
     direction 0.089538 -0.246004 0.965124   
     length 2.19909   
     axis -90 7.62852e-016 20   XYZ
    dof rx rz
    limits (-45.0 90.0)
           (-70.0 20.0)
  end
  begin
     id 5 
     name ltoes
     direction 1.53544e-011 -4.21829e-011 1   
     length 1.10116   
     axis -90 7.62852e-016 20   XYZ
    dof rx
    limits (-90.0 20.0)
  end
  begin
     id 6 
     name rhipjoint
     direction -0.554414 -0.743062 0.374812   
     length 2.4371  
     axis 0 0 0  XYZ 
  end
  begin
     id 7 
     name rfemur
     direction -0.34202 -0.939693 0   
     length 7.47254   
     axis 0 0 -20   XYZ
    dof rx ry rz
    limits (-160.0 20.0)
           (-70.0 70.0)
           (-70.0 60.0)
  end
  begin
     id 8 
     name rtibia
     direction -0.34202 -0.939693 0   
     length 7.65855   
     axis 0 0 -20   XYZ
    dof rx
    limits (-10.0 170.0)
 end
 begin
     id 9 
     name rfoot
     direction -0.133779 -0.367555 0.92033   
     length 2.43006  
     axis -90 -7.62852e-016 -20   XYZ
    dof rx rz
    limits (-45.0 90.0)
           (-20.0 70.0)
  end
  begin
     id 10 
     name rtoes
     direction -1.53563e-011 -4.21889e-011 1   
     length 1.19625   
     axis -90 -7.62852e-016 -20   XYZ
    dof rx
    limits (-90.0 20.0)
  end
  begin
     id 11 
     name lowerback
     direction 0.0249066 0.998043 -0.0573585   
     length 2.08485   
     axis 0 0 0   XYZ
    dof rx ry rz
    limits (-20.0 45.0)
           (-30.0 30.0)
           (-30.0 30.0)
  end
  begin
     id 12 
     name upperback
     direction 0.0237884 0.999673 0.00943178   
     length 2.08515   
     axis 0 0 0   XYZ
    dof rx ry rz
    limits (-20.0 45.0)
           (-30.0 30.0)
           (-30.0 30.0)
  end
  begin
     id 13 
     name thorax
     direction 0.0106671 0.999301 0.0358174   
     length 2.09037   
     axis 0 0 0   XYZ
    dof rx ry rz
    limits (-20.0 45.0)
           (-30.0 30.0)
           (-30.0 30.0)
  end
  begin
     id 14 
     name lowerneck
     direction -0.0580016 0.987052 0.149546   
     length 1.84454   
     axis 0 0 0   XYZ
    dof rx ry rz
    limits (-20.0 45.0)
           (-30.0 30.0)
           (-30.0 30.0)
  end
  begin
     id 15 
     name upperneck
     direction 0.079456 0.981963 -0.171567   
     length 1.88141   
     axis 0 0 0   XYZ
    dof rx ry rz
    limits (-20.0 45.0)
           (-30.0 30.0)
           (-30.0 30.0)
  end
  begin
     id 16
     name head
     direction 0.0262167 0.9967 -0.0768276  
     length 1.89541  
     axis 0 0 0   XYZ
    dof rx ry rz
    limits (-20.0 45.0)
           (-30.0 30.0)
           (-30.0 30.0)
  end
  begin
     id 17 
     name lclavicle
     direction 0.946135 0.322134 -0.0325326  
     length 3.949  
     axis 0 0 0   XYZ
    dof ry rz
    limits (-20.0 10.0)
           (0.0 20.0)
  end
  begin
     id 18 
     name lhumerus
     direction 1 -4.48964e-011 1.94005e-028   
     length 5.10995   
     axis 180 -30 -90   XYZ
    dof rx ry rz
    limits (-60.0 90.0)
           (-90.0 90.0)
           (-90.0 90.0)
  end
  begin
     id 19
     name lradius
     direction 1 -4.48976e-011 2.87852e-027   
     length 3.21207   
     axis 180 -30 -90   XYZ
    dof rx
    limits (-10.0 170.0)
  end
  begin
     id 20
     name lwrist
     direction 1 -4.48963e-011 1.9975e-027   
     length 1.60604   
     axis 2.96054e-016 90 90   XYZ
    dof ry
    limits (-180.0 0.0)
 end
  begin
     id 21 
     name lhand
     direction 1 -4.48919e-011 4.00227e-027   
     length 0.63349   
     axis -2.5488e-015 90 90   XYZ
    dof rx rz
    limits (-90.0 90.0)
           (-45.0 45.0)
  end
  begin
     id 22 
     name lfingers
     direction 1 -4.49037e-011 7.9652e-027   
     length 0.510736   
     axis -5.0975e-015 90 90   XYZ
    dof rx
    limits (0.0 90.0)
  end
  begin
     id 23
     name lthumb
     direction 0.707107 -6.34922e-011 0.707107   
     length 0.733318   
     axis -90 45 -4.48553e-014   XYZ
    dof rx rz
    limits (-45.0 45.0)
           (-45.0 45.0)
  end
  begin
     id 24 
     name rclavicle
     direction -0.940085 0.328911 -0.0897654   
     length 3.93848  
     axis 0 0 0   XYZ 
    dof ry rz
    limits (-10.0 20.0)
           (-20.0 0.0)
  end
  begin
     id 25 
     name rhumerus
     direction -1 -4.48958e-011 3.02044e-027  
     length 5.25109   
     axis 180 30 90   XYZ
    dof rx ry rz
    limits (-90.0 60.0)
           (-90.0 90.0)
           (-90.0 90.0)
  end
  begin
     id 26 
     name rradius
     direction -1 -4.4897e-011 9.78352e-028   
     length 3.28364   
     axis 180 30 90   XYZ
    dof rx
    limits (-10.0 170.0)
  end
  begin
     id 27 
     name rwrist
     direction -1 -4.48943e-011 1.99918e-027   
     length 1.64182   
     axis 2.96054e-016 -90 -90   XYZ
    dof ry
    limits (-180.0 0.0)
  end
  begin
     id 28
     name rhand
     direction -1 -4.49024e-011 3.98478e-027   
     length 0.599745   
     axis -2.5488e-015 -90 -90   XYZ
    dof rx rz
    limits (-90.0 90.0)
           (-45.0 45.0)
  end
  begin
     id 29
     name rfingers
     direction -1 -4.48914e-011 8.00621e-027   
     length 0.48353   
     axis -5.0975e-015 -90 -90   XYZ
    dof rx
    limits (0.0 90.0)
  end
  begin
     id 30
     name rthumb
     direction -0.707107 -6.34992e-011 0.707107   
     length 0.694255   
     axis -90 -45 4.48553e-014   XYZ
    dof rx rz
    limits (-45.0 45.0)
           (-45.0 45.0)
  end
:hierarchy
  begin
    root lhipjoint rhipjoint lowerback
    lhipjoint lfemur
    lfemur ltibia
    ltibia lfoot
    lfoot ltoes
    rhipjoint rfemur
    rfemur rtibia
    rtibia rfoot
    rfoot rtoes
    lowerback upperback
    upperback thorax
    thorax lowerneck lclavicle rclavicle
    lowerneck upperneck
    upperneck head
    lclavicle lhumerus
    lhumerus lradius
    lradius lwrist
    lwrist lhand lthumb
    lhand lfingers
    rclavicle rhumerus
    rhumerus rradius
    rradius rwrist
    rwrist rhand rthumb
    rhand rfingers
  end

#!OML:ASF E:\CV Data\Top Level 1\Subject 1\Session 1\player.ASF
:FULLY-SPECIFIED
:DEGREES
248
root 11.3963 15.9804 -10.015 -1.42783 -79.0281 5.22031
lowerback 1.70132 -1.54819 -5.76696
upperback -3.70285 -2.38973 -0.816703
thorax -4.59944 -1.01591 2.51388
lowerneck -15.4121 10.0171 -3.07884
upperneck 27.9172 12.2592 8.84513
head 10.6871 6.23006 5.26751
rclavicle -3.93097e-014 -2.8625e-014
rhumerus -29.6479 47.2168 -97.2926
rradius 114.863
rwrist 16.4928
rhand -46.6432 48.9842
rfingers 7.12502
rthumb -19.3643 19.9283
lclavicle -3.93097e-014 -2.8625e-014
lhumerus -34.2853 -45.4656 112.088
lradius 111.368
lwrist -25.9153
lhand -46.1326 -2.25251
lfingers 7.12502
lthumb -18.8732 26.8519
rfemur -48.1243 0.00436054 21.9979
rtibia 57.3716
rfoot -12.8354 -2.83238
rtoes 14.8853
lfemur 12.5099 5.25901 -24.4198
ltibia 24.6381
lfoot -25.1733 17.2828
ltoes -21.4892
249
root 11.2941 15.9725 -10.0098 -0.982231 -79.661 4.29517
lowerback 1.59427 -1.58622 -5.67351
upperback -3.68814 -2.42669 -0.78106
thorax -4.5213 -1.03948 2.49653
lowerneck -15.3143 10.2284 -3.04727
upperneck 28.0203 12.496 9.01513
head 10.6764 6.35904 5.34547
rclavicle -1.2275e-014 -2.06736e-014
rhumerus -28.938 47.4267 -96.8374
rradius 115.301
rwrist 17.0422
rhand -46.8192 49.5109
rfingers 7.12502
rthumb -19.5335 20.4722
lclavicle -1.2275e-014 -2.06736e-014
lhumerus -33.7623 -45.8114 111.844
lradius 111.941
lwrist -26.5152
lhand -46.1457 -2.92172
lfingers 7.12502
lthumb -18.8858 26.1814
rfemur -47.3933 0.36185 22.39
rtibia 57.655
rfoot -13.4189 -2.60473
rtoes 14.6967
lfemur 12.8219 5.56546 -24.0136
ltibia 25.7888
lfoot -24.8309 16.6567
ltoes -22.9037
250
root 11.188 15.9659 -10.0044 -0.514837 -80.2995 3.29777
lowerback 1.4878 -1.62441 -5.59478
upperback -3.64976 -2.46232 -0.727259
thorax -4.41761 -1.06231 2.50551
lowerneck -15.1751 10.4474 -3.08508
upperneck 28.1107 12.7543 9.2128
head 10.6426 6.49491 5.44035
rclavicle -2.24627e-014 -2.38542e-015
rhumerus -28.2232 47.6842 -96.3661
rradius 115.733
rwrist 17.5413
rhand -46.9746 50.0182
rfingers 7.12502
rthumb -19.6828 20.9946
lclavicle -2.24627e-014 -2.38542e-015
lhumerus -33.2038 -46.1288 111.579
lradius 112.495
lwrist -27.1326
lhand -46.151 -3.50686
lfingers 7.12502
lthumb -18.891 25.5958
rfemur -46.5602 0.69386 22.7831
rtibia 57.8945
rfoot -14.0104 -2.35252
rtoes 14.4711
lfemur 13.0655 5.91278 -23.5722
ltibia 27.1887
lfoot -24.3789 15.9146
ltoes -24.4598
251
root 11.0786 15.9612 -9.99918 0.0774233 -80.9372 2.13546
lowerback 1.38736 -1.66461 -5.48041
upperback -3.59714 -2.49955 -0.682422
thorax -4.30401 -1.08768 2.48515
lowerneck -15.0474 10.6747 -3.10236
upperneck 28.2447 13.0124 9.42726
head 10.6268 6.63331 5.54149
rclavicle 1.08338e-014 -3.97569e-016
rhumerus -27.5047 47.954 -95.9195
rradius 116.15
rwrist 18.0177
rhand -47.1073 50.5116
rfingers 7.12502
rthumb -19.8104 21.5012
lclavicle 1.08338e-014 -3.97569e-016
lhumerus -32.6283 -46.4294 111.255
lradius 113.037
lwrist -27.8231
lhand -46.135 -4.00188
lfingers 7.12502
lthumb -18.8756 25.1023
rfemur -45.6359 0.99668 23.1908
rtibia 58.0826
rfoot -14.5973 -2.08866
rtoes 14.215
lfemur 13.2101 6.28339 -23.0825
ltibia 28.8483
lfoot -23.7805 15.0396
ltoes -26.0695
252
root 10.9662 15.959 -9.99369 0.870019 -81.571 0.733982
lowerback 1.29209 -1.6941 -5.31508
upperback -3.53008 -2.5214 -0.657028
thorax -4.18233 -1.10771 2.41535
lowerneck -14.8968 10.8988 -3.12759
upperneck 28.3932 13.2555 9.67948
head 10.6082 6.76812 5.65374
rclavicle 2.68856e-014 -3.57812e-015
rhumerus -26.7768 48.1747 -95.4873
rradius 116.546
rwrist 18.528
rhand -47.2216 51.0161
rfingers 7.12502
rthumb -19.9204 22.0171
lclavicle 2.68856e-014 -3.57812e-015
lhumerus -32.0388 -46.7318 110.878
lradius 113.548
lwrist -28.6625
lhand -46.2669 -4.29455
lfingers 7.12502
lthumb -19.0024 24.7972
rfemur -44.6209 1.26731 23.6177
rtibia 58.2136
rfoot -15.165 -1.8201
rtoes 13.9202
lfemur 13.2395 6.68474 -22.5312
ltibia 30.7761
lfoot -23.015 13.9906
ltoes -27.624
253
root 10.8509 15.9589 -9.98756 1.94437 -82.2095 -0.989968
lowerback 1.21027 -1.70672 -5.08111
upperback -3.45074 -2.52019 -0.65855
thorax -4.06116 -1.11884 2.27872
lowerneck -14.7597 11.1155 -3.11574
upperneck 28.5863 13.4678 9.95945
head 10.6112 6.89434 5.77135
rclavicle 6.5102e-015 6.36111e-015
rhumerus -26.0401 48.3249 -95.0718
rradius 116.915
rwrist 19.1375
rhand -47.3354 51.4864
rfingers 7.12502
rthumb -20.0297 22.4988
lclavicle 6.5102e-015 6.36111e-015
lhumerus -31.4442 -47.0397 110.456
lradius 114.018
lwrist -29.715
lhand -46.4137 -4.45175
lfingers 7.12502
lthumb -19.1436 24.6261
rfemur -43.5177 1.51634 24.0664
rtibia 58.2846
rfoot -15.695 -1.55194
rtoes 13.6169
lfemur 13.1492 7.1048 -21.9269
ltibia 32.9647
lfoot -22.0242 12.7957
ltoes -29.1267
254
root 10.7338 15.9617 -9.98083 3.52909 -82.8451 -3.25157
lowerback 1.14849 -1.71132 -4.78618
upperback -3.36718 -2.50763 -0.657967
thorax -3.9501 -1.12546 2.1105
lowerneck -14.6221 11.3308 -3.11743
upperneck 28.8121 13.6732 10.2635
head 10.6225 7.01783 5.90069
rclavicle 1.80397e-014 1.82882e-014
rhumerus -25.2915 48.4338 -94.6397
rradius 117.259
rwrist 19.8822
rhand -47.479 51.9314
rfingers 7.12502
rthumb -20.1677 22.9582
lclavicle 1.80397e-014 1.82882e-014
lhumerus -30.8119 -47.3 109.991
lradius 114.451
lwrist -30.9566
lhand -46.695 -4.44245
lfingers 7.12502
lthumb -19.414 24.6084
rfemur -42.3421 1.75016 24.5544
rtibia 58.2924
rfoot -16.1735 -1.29679
rtoes 13.3129
lfemur 12.9144 7.52131 -21.2532
ltibia 35.3955
lfoot -20.7741 11.3892
ltoes -30.3946
255
root 10.6151 15.967 -9.97336 5.71065 -83.4863 -6.13728
lowerback 1.11522 -1.69712 -4.43861
upperback -3.28076 -2.47043 -0.659907
thorax -3.85603 -1.12052 1.91041
lowerneck -14.4927 11.538 -3.11138
upperneck 29.0699 13.8601 10.5782
head 10.6478 7.13368 6.03403
rclavicle -2.94201e-014 -1.66979e-014
rhumerus -24.5362 48.4861 -94.1898
rradius 117.58
rwrist 20.7911
rhand -47.688 52.3162
rfingers 7.12502
rthumb -20.3686 23.3644
lclavicle -2.94201e-014 -1.66979e-014
lhumerus -30.1397 -47.5325 109.486
lradius 114.858
lwrist -32.3181
lhand -46.8299 -4.45866
lfingers 7.12502
lthumb -19.5438 24.5791
rfemur -41.0976 1.98156 25.0725
rtibia 58.2422
rfoot -16.5989 -1.05995
rtoes 13.0423
lfemur 12.5402 7.94188 -20.5193
ltibia 38.0327
lfoot -19.2017 9.75119
ltoes -31.3549
